<svg xmlns="http://www.w3.org/2000/svg" width="1600" height="1000" viewBox="0 0 1600 1000">
  <defs>
    <linearGradient id="g" x1="0" y1="0" x2="1" y2="1">
      <stop offset="0" stop-color="#d19a2b" stop-opacity="0.38"/>
      <stop offset="0.55" stop-color="#1e6a4d" stop-opacity="0.22"/>
      <stop offset="1" stop-color="#0b1512" stop-opacity="0.10"/>
    </linearGradient>
    <filter id="n">
      <feTurbulence type="fractalNoise" baseFrequency="0.8" numOctaves="2" stitchTiles="stitch"/>
      <feColorMatrix type="matrix" values="1 0 0 0 0  0 1 0 0 0  0 0 1 0 0  0 0 0 .18 0"/>
    </filter>
  </defs>
  <rect width="1600" height="1000" fill="#0f221b"/>
  <rect width="1600" height="1000" fill="url(#g)"/>

  <g opacity="0.42">
    <path d="M-30 810 C 280 650, 520 650, 830 810 S 1380 970, 1680 820 L 1680 1020 L -30 1020 Z" fill="#0b1512"/>
    <path d="M-30 740 C 320 590, 520 590, 880 740 S 1410 900, 1680 780 L 1680 1020 L -30 1020 Z" fill="#10241d"/>
    <path d="M-30 670 C 320 530, 560 530, 920 670 S 1440 820, 1680 710 L 1680 1020 L -30 1020 Z" fill="#143126"/>
  </g>

  <g filter="url(#n)"/>

  <g opacity="0.85">
    <text x="70" y="130" font-family="ui-serif, Georgia, serif" font-size="44" fill="#ffffff">Foto da fazenda (placeholder)</text>
    <text x="70" y="176" font-family="ui-sans-serif, system-ui" font-size="18" fill="#ffffff" opacity="0.78">Substitua este SVG por uma foto real em alta qualidade.</text>
  </g>
</svg>
